<svg width="250" height="250" viewBox="0 0 250 250" fill="none" xmlns="http://www.w3.org/2000/svg">
<rect width="250" height="250" fill="#195766"/>
<path d="M38.8869 186V98.055H67.5969L69.2469 126.93L62.8119 121.98C64.2419 117.14 66.4419 112.795 69.4119 108.945C72.4919 104.985 76.1769 101.905 80.4669 99.705C84.7569 97.395 89.2669 96.24 93.9969 96.24C95.9769 96.24 97.8469 96.405 99.6069 96.735C101.367 96.955 103.017 97.285 104.557 97.725L96.1419 131.715C94.9319 130.945 93.2269 130.285 91.0269 129.735C88.8269 129.075 86.4619 128.745 83.9319 128.745C81.7319 128.745 79.7519 129.13 77.9919 129.9C76.2319 130.56 74.7469 131.55 73.5369 132.87C72.3269 134.19 71.3919 135.785 70.7319 137.655C70.0719 139.415 69.7419 141.505 69.7419 143.925V186H38.8869ZM110.256 186L154.971 70.5H173.121L217.506 186H198.531L172.131 116.37C171.801 115.6 171.141 113.73 170.151 110.76C169.271 107.79 168.226 104.49 167.016 100.86C165.806 97.23 164.706 93.93 163.716 90.96C162.726 87.88 162.066 85.9 161.736 85.02L165.531 84.855C164.871 86.725 164.046 89.09 163.056 91.95C162.176 94.81 161.186 97.835 160.086 101.025C159.096 104.215 158.106 107.24 157.116 110.1C156.126 112.85 155.301 115.16 154.641 117.03L128.406 186H110.256ZM130.056 157.29L136.656 140.13H189.126L196.716 157.29H130.056Z" fill="#FBFBFB"/>
</svg>
