<svg width="250" height="250" viewBox="0 0 250 250" fill="none" xmlns="http://www.w3.org/2000/svg">
<path d="M31.6039 192V96.06H62.9239L64.7239 127.56L57.7039 122.16C59.2639 116.88 61.6639 112.14 64.9039 107.94C68.2639 103.62 72.2839 100.26 76.9639 97.86C81.6439 95.34 86.5639 94.08 91.7239 94.08C93.8839 94.08 95.9239 94.26 97.8439 94.62C99.7639 94.86 101.564 95.22 103.244 95.7L94.0639 132.78C92.7439 131.94 90.8839 131.22 88.4839 130.62C86.0839 129.9 83.5039 129.54 80.7439 129.54C78.3439 129.54 76.1839 129.96 74.2639 130.8C72.3439 131.52 70.7239 132.6 69.4039 134.04C68.0839 135.48 67.0639 137.22 66.3439 139.26C65.6239 141.18 65.2639 143.46 65.2639 146.1V192H31.6039Z" fill="#195766"/>
<path d="M109.461 192L158.241 66H178.041L226.461 192H205.761L176.961 116.04C176.601 115.2 175.881 113.16 174.801 109.92C173.841 106.68 172.701 103.08 171.381 99.12C170.061 95.16 168.861 91.56 167.781 88.32C166.701 84.96 165.981 82.8 165.621 81.84L169.761 81.66C169.041 83.7 168.141 86.28 167.061 89.4C166.101 92.52 165.021 95.82 163.821 99.3C162.741 102.78 161.661 106.08 160.581 109.2C159.501 112.2 158.601 114.72 157.881 116.76L129.261 192H109.461ZM131.061 160.68L138.261 141.96H195.501L203.781 160.68H131.061Z" fill="#63A3B2"/>
</svg>
