<?xml version="1.0" standalone="no"?>
<!DOCTYPE svg PUBLIC "-//W3C//DTD SVG 20010904//EN"
 "http://www.w3.org/TR/2001/REC-SVG-20010904/DTD/svg10.dtd">
<svg version="1.0" xmlns="http://www.w3.org/2000/svg"
 width="700.000000pt" height="700.000000pt" viewBox="0 0 700.000000 700.000000"
 preserveAspectRatio="xMidYMid meet">
<metadata>
Created by potrace 1.14, written by Peter Selinger 2001-2017
</metadata>
<g transform="translate(0.000000,700.000000) scale(0.100000,-0.100000)"
fill="#000000" stroke="none">
<path d="M4419 5123 c-6 -16 -28 -73 -49 -128 -21 -55 -59 -154 -85 -220 -26
-66 -68 -176 -95 -245 -26 -69 -73 -188 -103 -265 -117 -302 -293 -759 -359
-930 -38 -99 -77 -200 -87 -225 -11 -25 -34 -83 -51 -130 -18 -47 -36 -94 -41
-105 -7 -17 -101 -259 -174 -450 -31 -80 -136 -352 -191 -492 -60 -156 -101
-264 -108 -288 -6 -20 -2 -21 268 -21 l275 -1 17 46 c9 25 22 60 29 76 8 17
63 163 125 325 61 162 123 325 137 363 l26 67 738 0 c795 0 741 3 755 -45 1
-5 28 -75 59 -155 30 -79 62 -163 70 -185 8 -22 27 -74 43 -115 16 -41 53
-138 82 -215 29 -77 57 -144 62 -150 7 -8 578 -16 578 -8 0 1 -20 53 -44 115
-24 62 -62 161 -85 220 -51 136 -105 276 -136 353 -13 33 -42 110 -65 170 -22
61 -45 119 -50 130 -5 11 -19 47 -31 80 -11 33 -27 74 -34 90 -7 17 -52 134
-100 260 -48 127 -93 244 -100 260 -7 17 -38 98 -70 180 -100 265 -117 309
-130 340 -7 17 -52 134 -99 260 -48 127 -91 239 -96 250 -5 11 -27 67 -49 125
-82 213 -150 389 -206 538 l-59 152 -278 0 -278 0 -11 -27z m443 -1098 c36
-117 219 -617 313 -854 20 -51 40 -105 45 -120 l7 -26 -537 0 -538 0 15 40 c8
22 19 49 24 60 8 18 164 430 226 595 52 139 101 284 208 613 l68 209 64 -194
c36 -106 83 -251 105 -323z"/>
<path d="M2465 4359 c-207 -29 -405 -129 -559 -283 -68 -69 -106 -115 -106
-130 0 -6 -3 -6 -9 0 -6 5 -13 70 -17 144 -7 131 -11 197 -13 213 -1 4 -198 7
-439 7 l-437 0 1 -1337 c1 -736 2 -1340 3 -1343 1 -5 893 -6 928 -2 9 2 12
170 12 685 0 741 0 736 57 849 99 196 358 261 646 163 40 -14 80 -28 88 -31
12 -4 27 44 80 253 35 142 65 263 66 268 1 6 29 120 63 254 43 173 58 247 49
252 -12 8 -97 25 -173 35 -73 10 -182 11 -240 3z"/>
</g>
</svg>
